<svg
   #LogoSVG
   id="svg8"
   class="white"
   width="210mm"
   height="210mm"
   viewBox="0 0 210 210"
   version="1.1"
   inkscape:version="0.92.5 (2060ec1f9f, 2020-04-08)"
   sodipodi:docname="mambi_coder_logo_3.svg">
  <defs
     id="defs2">
    <inkscape:perspective
       sodipodi:type="inkscape:persp3d"
       inkscape:vp_x="-0.75595234 : 211.24405 : 1"
       inkscape:vp_y="0 : 1000 : 0"
       inkscape:vp_z="210.75595 : 215.77976 : 1"
       inkscape:persp3d-origin="105 : 99 : 1"
       id="perspective3717" />
  </defs>
  <sodipodi:namedview
     id="base"
     pagecolor="#ffffff"
     bordercolor="#666666"
     borderopacity="1.0"
     inkscape:pageopacity="0.0"
     inkscape:pageshadow="2"
     inkscape:zoom="0.35"
     inkscape:cx="129.17107"
     inkscape:cy="250.9818"
     inkscape:document-units="mm"
     inkscape:current-layer="layer1"
     showgrid="false"
     inkscape:window-width="1920"
     inkscape:window-height="1001"
     inkscape:window-x="-9"
     inkscape:window-y="-9"
     inkscape:window-maximized="1"
     showguides="true"
     inkscape:guide-bbox="true">
    <sodipodi:guide
       position="-160.2619,-70.303573"
       orientation="0,1"
       id="guide956"
       inkscape:locked="false" />
    <sodipodi:guide
       position="-119.44047,-170.08929"
       orientation="0,1"
       id="guide958"
       inkscape:locked="false" />
    <sodipodi:guide
       position="-210.91071,-70.303575"
       orientation="1,0"
       id="guide960"
       inkscape:locked="false" />
    <sodipodi:guide
       position="-68.035713,-21.92262"
       orientation="1,0"
       id="guide962"
       inkscape:locked="false" />
  </sodipodi:namedview>
  <metadata
     id="metadata5">
    <rdf:RDF>
      <cc:Work
         rdf:about="">
        <dc:format>image/svg+xml</dc:format>
        <dc:type
           rdf:resource="http://purl.org/dc/dcmitype/StillImage" />
        <dc:title></dc:title>
      </cc:Work>
    </rdf:RDF>
  </metadata>
  <g
     inkscape:label="Layer 1"
     inkscape:groupmode="layer"
     id="layer1">
    <rect
       id="rect3747-0-5-7"
       width="165.91347"
       height="165.91347"
       x="45.996147"
       y="-8.5019121"
       style="fill:none;stroke:#020000;stroke-width:6.61458349;stroke-linecap:round;stroke-linejoin:miter;stroke-miterlimit:4;stroke-dasharray:79.375, 79.375;stroke-dashoffset:2.08703399;stroke-opacity:1"
       transform="rotate(15.048825)" />
    <circle
       style="fill:none;stroke:#020000;stroke-width:6.61458349;stroke-linecap:round;stroke-linejoin:miter;stroke-miterlimit:4;stroke-dasharray:158.75, 158.75;stroke-dashoffset:0;stroke-opacity:1"
       id="path4621-3-4"
       cx="103.54504"
       cy="105.73341"
       r="80.588516" />
    <g
       id="layer1-4"
       inkscape:label="Layer 1"
       transform="matrix(1.2803223,-0.22533286,0.22533286,1.2803223,40.545114,77.764293)">
      <path
         inkscape:connector-curvature="0"
         id="path1528"
         d="m 0.33618126,57.100694 c -0.0926,-0.24253 -0.12726,-13.061596 -0.0771,-28.486804 l 0.0912,-28.04582987 6.40770994,-0.09604 6.4077188,-0.09604 2.43823,5.03492297 c 1.34102,2.769208 4.09317,8.4863399 6.11589,12.7047389 2.02272,4.218398 3.75704,7.670606 3.85406,7.671571 0.097,9.53e-4 1.43747,-2.656701 2.9788,-5.905927 1.54133,-3.249225 4.28975,-8.96362 6.10761,-12.6986529 l 3.3052,-6.79097197 h 6.3278 6.32781 V 28.966658 57.541654 H 44.4519 38.28269 l -0.0926,-12.788191 -0.0926,-12.788194 -3.73716,7.584722 c -2.05544,4.171597 -4.8494,9.886597 -6.2088,12.700003 l -2.47164,5.11527 -1.57982,-3.175 c -0.8689,-1.74625 -1.79656,-3.730621 -2.06145,-4.409718 -0.2649,-0.679097 -0.57002,-1.314097 -0.67805,-1.411111 -0.22772,-0.204509 -2.85168,-5.565161 -4.79184,-9.789583 -1.2167,-2.649209 -1.42666,-2.910416 -2.33937,-2.910416 h -1.0027 v 10.93611 10.936108 H 6.8655812 c -4.76392,0 -6.40331994,-0.11072 -6.52934994,-0.44097 z m 64.13834874,0.0691 c -3.87189,-0.76418 -6.62835,-2.95365 -7.85877,-6.242233 -0.70501,-1.884302 -0.72197,-2.49289 -0.62566,-22.444005 l 0.099,-20.5071839 0.91183,-1.940277 c 0.94911,-2.019595 2.36334,-3.264365 5.0854,-4.476038 1.20163,-0.534883 2.72035,-0.64681197 10.23055,-0.75398197 9.18251,-0.131033 11.4447,0.09092 13.96813,1.37043997 1.76483,0.894875 3.27739,2.73286 4.24112,5.153582 0.72744,1.8272275 0.82324,2.6789609 0.85631,7.6136349 l 0.0372,5.55625 h -6.2882 -6.2882 v -2.584339 c 0,-2.317512 -0.0934,-2.67205 -0.90427,-3.433855 -0.74685,-0.701631 -1.34562,-0.870619 -3.43958,-0.97074 -1.49964,-0.07171 -3.10572,0.07006 -3.93166,0.347049 -1.22187,0.409766 -1.43274,0.644114 -1.68772,1.875625 -0.16026,0.774042 -0.24629,7.3354 -0.19116,14.580794 0.0956,12.571021 0.13154,13.19633 0.78501,13.673899 0.48578,0.355015 1.73587,0.500454 4.30153,0.500454 4.5306,0 4.71507,-0.175595 4.71507,-4.488218 v -2.920114 h 6.52639 6.52639 v 7.035446 7.035451 l -1.99971,2.15992 c -2.22604,2.40439 -3.63459,3.24872 -6.39612,3.83405 -2.15251,0.45624 -16.39065,0.47484 -18.67291,0.0244 z"
         style="fill:#000000;stroke-width:0.35277778" />
    </g>
    <g
       id="layer1-6"
       inkscape:label="Layer 1"
       transform="matrix(1.2803223,-0.22533286,0.22533286,1.2803223,41.100699,78.125403)">
      <path
         inkscape:connector-curvature="0"
         id="path1541"
         d="m 65.372105,56.877445 c -2.49959,-0.366321 -5.2374,-1.516208 -6.29802,-2.645192 l -0.80176,-0.853433 h 15.462 15.462008 l -0.67204,0.743688 c -1.10053,1.217863 -3.83953,2.407666 -6.39233,2.776788 -2.84907,0.411963 -13.898018,0.397555 -16.759858,-0.02184 z M 0.53975573,28.684377 V 0.46215699 H 6.8773457 c 5.9765393,0 6.3590993,0.0402 6.7151893,0.70555501 0.367,0.685743 0.26828,0.705556 -3.51537,0.705556 -2.3601193,0 -3.8929593,0.138904 -3.8929593,0.352777 0,0.214809 1.59241,0.352778 4.0716993,0.352778 h 4.07169 l 1.04358,2.325941 c 0.9404,2.095972 1.04358,2.688923 1.04358,5.997221 v 3.671282 l 1.85209,0.0062 1.85208,0.0062 2.64583,5.624682 c 1.45521,3.093574 2.72521,5.625046 2.82222,5.625492 0.097,4.59e-4 2.00591,-3.843154 4.24199,-8.541332 3.77444,-7.930385 4.13623,-8.550309 5.05187,-8.656162 0.94107,-0.108793 0.98217,-0.191253 0.89682,-1.799297 -0.10255,-1.932136 0.58424,-3.907516 1.35855,-3.907516 0.34038,0 0.46671,-0.232508 0.3561,-0.65545 -0.0943,-0.360497 -0.0255,-0.916122 0.15278,-1.234722 0.28184,-0.50362401 1.15114,-0.57927201 6.65665,-0.57927201 h 6.33247 V 3.284312 6.106534 h -1.94028 c -1.92068,0 -1.94028,0.01069 -1.94028,1.058333 0,1.047643 0.0196,1.058333 1.94028,1.058333 h 1.94028 v 19.931944 19.931943 h -1.94028 c -1.70509,0 -1.94028,0.08552 -1.94028,0.705556 0,0.620035 0.23519,0.705555 1.94028,0.705555 h 1.94028 v 3.704167 3.704166 h -6.16922 -6.1692 l -0.0926,-12.788194 -0.0926,-12.788193 -2.43497,5.027083 c -2.10636,4.348645 -2.54675,5.027083 -3.2632,5.027083 -0.74754,0 -0.82822,0.156083 -0.82822,1.60221 0,1.660712 -0.3252,2.470933 -3.9783,9.911972 l -1.92912,3.929465 -4.19004,-8.690271 c -6.60184,-13.692335 -6.16511,-12.92692 -7.37586,-12.92692 h -1.04752 l -0.0933,10.847916 -0.0933,10.847916 H 6.7082457 0.53973573 Z M 56.788315,50.824678 c -0.51885,-1.241475 -0.65481,-2.867745 -0.78185,-9.352107 l -0.15379,-7.849305 h 1.27132 1.27132 v -2.469444 -2.469445 h -1.27691 -1.27691 l 0.20697,-10.143696 c 0.2237,-10.963475 0.50549,-12.863314 1.93949,-13.075977 0.57879,-0.08584 0.76014,-0.358168 0.76014,-1.141522 0,-1.396293 1.93909,-2.652787 5.14059,-3.33100301 2.96266,-0.627619 15.543368,-0.725729 18.681118,-0.145684 2.73627,0.50582701 5.19287,1.78347401 6.35254,3.30388101 0.80002,1.048883 2.2813,4.859191 2.2813,5.868211 0,0.176741 -0.56205,0.321347 -1.24899,0.321347 h -1.24899 l 0.10246,2.910416 0.10246,2.910417 1.07667,0.105336 c 1.05839,0.103547 1.07636,0.137976 1.05834,2.028127 l -0.0183,1.922791 -6.2618,3.45e-4 -6.26181,3.45e-4 v -2.094315 -2.094315 l -1.13266,-0.110546 c -0.87294,-0.0852 -1.17979,-0.312136 -1.33816,-0.989669 -0.32928,-1.408734 -1.548728,-1.802633 -5.233658,-1.690543 -2.99496,0.0911 -3.35743,0.177665 -3.98356,0.951352 -0.96052,1.186868 -0.7168,1.947913 0.66663,2.081638 l 1.14363,0.110546 v 6.151259 c 0,5.916074 -0.027,6.151259 -0.70555,6.151259 -0.63836,0 -0.70556,0.235186 -0.70556,2.469445 0,2.234258 0.0672,2.469444 0.70556,2.469444 0.67031,0 0.70555,0.235186 0.70555,4.707823 0,5.905341 0.0627,5.992184 4.46101,6.176888 4.995518,0.209786 5.659748,-0.410711 5.515168,-5.152072 l -0.078,-2.557639 h 6.33979 6.33979 v 1.411111 c 0,1.377512 -0.0294,1.411111 -1.23472,1.411111 -1.08186,0 -1.23472,0.109192 -1.23472,0.881944 0,0.772753 0.15286,0.881945 1.23472,0.881945 h 1.23472 v 3.527777 c 0,2.84402 -0.099,3.527778 -0.51073,3.527778 -0.36739,0 -0.54066,0.519786 -0.61736,1.852083 l -0.10663,1.852083 -16.276258,0.09169 -16.27627,0.09169 z"
         style="fill:#000000;stroke-width:0.35277778" />
    </g>
    <g
       id="layer1-49"
       inkscape:label="Layer 1"
       transform="matrix(1.2803223,-0.22533286,0.22533286,1.2803223,33.920077,78.822008)">
      <path
         sodipodi:nodetypes="cccccccccccccccccccccccccccccccccccccccccccccccccccccccccccccccccccccccccccccccccccccccccccccccccccccccccccccccccccccccccccccccccccccccccccccccccccccccccccccccccccccccccccccccccccccccccccccccccccccccccccccccccccccccccccccccccccccccccccccccccccccccccccccccccccccccccccccccccccccccccccccccccccccccccccccccccccccccccccccccccccccccccccccccccccccccccccccccccccccc"
         inkscape:connector-curvature="0"
         id="path1580"
         d="m 74.921902,57.372567 -5.46805,-0.03536 -1.94812,-0.251485 -1.94812,-0.251481 -1.75605,-0.585512 -1.75604,-0.585516 -1.05834,-0.86795 -1.05833,-0.86795 15.12444,-0.0127 15.12445,-0.0127 -0.43244,0.521064 -0.43245,0.521063 -1.81657,0.888767 -1.81658,0.888767 -2.64487,0.343168 -2.64487,0.34319 z M 10.53996,57.076936 H 4.3663495 v -2.998611 -2.998611 h 6.1736105 6.173612 v 2.998611 2.998611 z m 37.747222,0 h -6.17361 V 53.19638 49.315825 h -1.76389 -1.76389 V 48.963047 48.61027 h 1.76389 1.76389 v -1.940278 -1.940278 h 1.5875 1.5875 v -1.411111 -1.411111 h -1.5875 -1.5875 v -5.115277 -5.115278 l -0.26458,0.01609 -0.26459,0.01609 -2.19447,4.658216 -2.19449,4.658216 -0.22451,0.617361 -0.22451,0.617361 h 1.44885 1.44886 v 0.15979 0.159788 l -0.40941,0.898546 -0.4094,0.898542 h -1.66367 -1.66367 l -0.83734,1.934256 -0.83735,1.934259 -1.98732,0.006 -1.98733,0.006 -0.18451,0.705556 -0.18451,0.705555 h 1.73087 1.73086 l -0.0179,0.264584 -0.0179,0.264583 -1.7168,3.351389 -1.7168,3.351388 -1.78623,-3.792387 -1.78624,-3.792361 h -1.9471 -1.9471 v -0.352778 -0.352777 h 1.5875 1.5875 v -0.366833 -0.366832 l -0.70556,-1.383002 -0.70555,-1.383002 v -0.190443 -0.190444 h 1.41111 1.41111 v -0.37023 -0.370297 l -0.53823,-1.040814 -0.53822,-1.040815 -1.66664,-0.01574 -1.66663,-0.01574 -1.56083,-3.335648 -1.56082,-3.335644 h -1.1732 -1.17321 v 6.526388 6.526389 h -1.76389 -1.763891 v 0.705555 0.705556 h 1.763891 1.76389 v 0.352778 0.352777 H 10.54 4.3663895 V 49.844992 49.315825 H 2.4260693 0.48578941 V 48.963047 48.61027 H 2.4260693 4.3663495 V 41.907492 35.204715 H 2.4260693 0.48578941 V 32.558882 29.913048 H 2.4260693 4.3663495 v -7.76111 -7.761111 h 1.5875 1.5875 v -3.175 -3.1750005 h -1.5875 -1.5875 v -2.469444 -2.469444 h 6.8619405 6.861942 l 1.34014,2.557639 1.34014,2.557638 1.60651,0.104698 1.6065,0.104698 1.30391,2.6351665 1.30392,2.635166 v 0.170553 0.170552 h -1.41111 -1.41111 l -0.004,0.264584 -0.005,0.264583 2.71823,5.732639 2.71823,5.732638 h 0.20689 0.20688 l 4.2528,-8.907638 4.2528,-8.9076395 -1.73561,-0.10768 -1.73562,-0.10768 0.20666,-0.538534 0.20666,-0.538533 v -0.147536 -0.147537 h 1.9565 1.95651 l 0.8606,-1.852083 0.86059,-1.852083 -3.614511,-0.1194353 0.139498,-0.3522287 3.724783,-0.0575 0.40184,-0.881944 0.40184,-0.88194398 h 6.35756 6.35756 v 2.82222198 2.822222 h -1.94027 -1.94028 v 1.058333 1.058333 h 1.94028 1.94027 V 25.326941 42.260273 h 1.5875 1.5875 v 1.058333 1.058334 h -1.5875 -1.5875 v 1.940277 1.940278 h -1.94027 -1.94028 v 0.705555 0.705556 h 1.94028 1.94027 v 3.704166 3.704167 z M 33.470522,35.557493 h 1.94027 v -2.998611 -2.998611 h -1.94027 -1.94028 v 2.998611 2.998611 z m 43.95001,16.933332 h -16.1986 l -0.53388,-1.499306 -0.53388,-1.499305 -0.20758,-0.970139 -0.20757,-0.970139 h -1.40439 -1.40439 V 47.02277 46.493603 h 1.41111 1.41111 v -6.35 -6.349999 h 1.23472 1.23472 v -2.469445 -2.469444 h -1.23472 -1.23472 v -6.349999 -6.35 h -1.23472 -1.23472 v -2.822222 -2.822222 h 1.228 1.228 l 0.21252,-0.9701395 0.21251,-0.970139 0.49976,-1.562149 0.49976,-1.562149 v -0.113545 -0.113546 h -1.6169 -1.6169 l 0.14547,-0.440972 0.14546,-0.440972 2.06445,-0.107705 2.06444,-0.107704 1.13868,-0.999778 1.13869,-0.999779 1.88428,-0.656405 1.88428,-0.65640598 h 8.64305 8.64306 l 1.84054,0.47338998 1.84055,0.47339 1.59052,1.053518 1.59052,1.053519 1.03662,2.177257 1.03662,2.177258 0.21334,0.970139 0.21334,0.9701395 h -1.24145 -1.24144 v 3.175 3.175 h 1.23472 1.23473 v 0.705555 0.705556 h 1.41111 1.41111 v 0.705555 0.705556 h -1.41111 -1.41111 v 0.529166 0.529167 h -6.35 -6.35 v -2.116667 -2.116666 h -1.02009 -1.02009 l -0.22023,-0.877482 -0.22024,-0.877482 -0.86539,-0.567029 -0.8654,-0.567029 -3.52181,0.121594 -3.52181,0.121595 -0.36308,0.363802 -0.36308,0.363802 -0.2271,1.135503 -0.2271,1.135504 h 1.27882 1.27882 v 6.349999 6.35 h 1.23472 1.23472 v 2.116666 2.116667 h -1.23472 -1.23472 v 4.91369 4.913689 l 0.55384,0.553837 0.55383,0.553836 0.85028,0.213406 0.85028,0.213406 3.03405,-0.124682 3.03405,-0.124683 0.50073,-0.684787 0.50072,-0.684788 v -0.990906 -0.990907 h -1.23472 -1.23473 V 40.67277 40.143603 h 1.23473 1.23472 v -1.587499 -1.5875 h 6.35 6.35 v 1.411111 1.411111 h -1.23473 -1.23472 v 0.881944 0.881944 h 1.26683 1.26684 l -0.12031,3.704562 -0.1203,3.704565 1.69947,-3.53e-4 1.69946,-3.52e-4 -0.17217,0.617361 -0.17217,0.617361 -0.22815,0.79375 -0.22816,0.79375 h -1.9165 -1.91651 v 0.352777 0.352778 H 77.420532 Z M 10.9186,2.0436055 H 4.3663495 V 1.3300915 0.61657752 l 6.4336505,0.09615 6.433652,0.09615 0.1186,0.61736098 0.11861,0.617361 z"
         style="fill:#000000;stroke-width:0.35277778" />
    </g>
  </g>
</svg>
