<?xml version="1.0" encoding="UTF-8" standalone="no"?>
<svg
   xmlns:dc="http://purl.org/dc/elements/1.1/"
   xmlns:cc="http://creativecommons.org/ns#"
   xmlns:rdf="http://www.w3.org/1999/02/22-rdf-syntax-ns#"
   xmlns:svg="http://www.w3.org/2000/svg"
   xmlns="http://www.w3.org/2000/svg"
   id="svg8"
   version="1.1"
   viewBox="0 0 210 297"
   height="297mm"
   width="210mm">
  <defs
     id="defs2" />
  <metadata
     id="metadata5">
    <rdf:RDF>
      <cc:Work
         rdf:about="">
        <dc:format>image/svg+xml</dc:format>
        <dc:type
           rdf:resource="http://purl.org/dc/dcmitype/StillImage" />
        <dc:title></dc:title>
      </cc:Work>
    </rdf:RDF>
  </metadata>
  <g
     id="layer1">
    <g
       id="flowRoot815"
       style="font-style:normal;font-weight:normal;font-size:40px;line-height:1.25;font-family:sans-serif;letter-spacing:0px;word-spacing:0px;fill:#000000;fill-opacity:1;stroke:none"
       transform="matrix(0.26458333,0,0,0.26458333,-13.607145,-23.661314)"
       aria-label="Here are some cool shit you can do with SVG">
      <path
         id="path831"
         style="font-style:normal;font-variant:normal;font-weight:normal;font-stretch:normal;font-size:40px;font-family:'Ink Free';-inkscape-font-specification:'Ink Free, Normal';font-variant-ligatures:normal;font-variant-caps:normal;font-variant-numeric:normal;font-feature-settings:normal;text-align:start;writing-mode:lr-tb;text-anchor:start"
         d="m 85.08,118.13274 q 0,0.64 -0.92,0.92 -0.72,0.24 -1.76,0.32 -1,0.04 -1.32,0.04 -0.04,1.24 -0.16,2.76 -0.12,1.52 -0.2,2.52 l -0.12,1.24 -0.08,1.28 -0.24,3.08 q -0.16,2.04 -1.32,2.04 -0.44,0 -0.88,-1.04 -0.4,-1 -0.4,-1.64 0,-0.16 0.32,-0.64 0.32,-0.48 0.4,-1.2 0.16,-1.12 0.36,-3.72 0.2,-2.6 0.28,-4.36 -1.56,0.12 -3.36,0.36 -0.8,0.08 -3.6,0.36 -2.8,0.28 -4.4,0.36 -0.16,2.64 -0.36,6.44 -0.2,3.8 -0.2,4.64 0,0.32 0.08,0.84 0.12,0.52 0.12,0.8 0,0.36 -0.56,0.72 -0.52,0.36 -0.84,0.36 -0.4,0 -0.68,-0.52 -0.24,-0.52 -0.24,-1.2 0,-0.36 0.08,-1.2 0.08,-0.8 0.12,-1.4 0.16,-1.08 0.2,-1.76 0.2,-2.36 0.32,-4.56 0.12,-2.2 0.16,-2.96 -2.52,0.44 -4.76,0.44 -0.76,0 -1.28,-0.36 -0.56,-0.4 -0.56,-1.12 0,-0.52 0.28,-0.76 0.24,-0.28 1.04,-0.28 l 2.12,0.04 q 2.08,0.08 3.36,0.08 0.2,-3.4 0.2,-5.44 0,-4.64 -0.08,-8.32 v -1.48 q 0,-0.6 0.44,-0.96 0.48,-0.4 1.08,-0.4 0.44,0 0.6,0.68 0.16,0.68 0.16,1.52 0,0.88 -0.2,3.6 -0.24,4.64 -0.24,4.92 l -0.2,5.72 q 3.36,-0.08 11.4,-1.04 0.16,-1.16 0.56,-6.08 0.16,-2.6 0.28,-3.8 l 0.24,-3.12 q 0.52,-5.879996 0.52,-7.359996 0,-0.52 0.4,-0.84 0.4,-0.32 0.92,-0.32 0.72,0 0.72,1.4 0,0.88 -0.4,4.679996 -0.44,4.96 -0.48,5.52 -0.24,3.08 -0.48,5.88 -0.2,2.8 -0.28,3.76 0.72,-0.12 1.28,-0.36 0.72,-0.24 1.12,-0.24 0.4,0 0.92,0.48 0.52,0.48 0.52,0.68 z" />
      <path
         id="path833"
         style="font-style:normal;font-variant:normal;font-weight:normal;font-stretch:normal;font-size:40px;font-family:'Ink Free';-inkscape-font-specification:'Ink Free, Normal';font-variant-ligatures:normal;font-variant-caps:normal;font-variant-numeric:normal;font-feature-settings:normal;text-align:start;writing-mode:lr-tb;text-anchor:start"
         d="m 104.50375,118.81274 q 0.28,0 0.28,0.6 0,0.72 -1.08,3.16 -1.04,2.44 -3.2,4.52 -2.12,2.08 -5.24,2.08 -2.56,0 -4.28,-1.6 -1.72,-1.6 -1.72,-4.92 0,-3.12 1.44,-6.16 1.44,-3.08 3.76,-5 2.32,-1.96 4.8,-1.96 1.48,0 2.48,0.68 1.04,0.64 1.04,1.88 0,1.4 -1.6,2.72 -1.56,1.32 -4.08,2.32 -2.52,1 -5.2,1.44 -0.48,1.84 -0.48,3.6 0,2.32 1.08,3.6 1.12,1.28 3.16,1.28 3.08,0 5,-2.2 1.92,-2.2 3.2,-4.96 0.08,-0.16 0.28,-0.6 0.2,-0.48 0.36,-0.48 z m -3.52,-6.28 q 0,-0.64 -0.68,-1 -0.64,-0.36 -1.52,-0.36 -1.52,0 -2.92,1 -1.4,1 -2.36,2.4 -0.92,1.4 -1.2,2.48 1.84,-0.2 3.88,-1.04 2.04,-0.84 3.4,-1.84 1.4,-1 1.4,-1.64 z" />
      <path
         id="path835"
         style="font-style:normal;font-variant:normal;font-weight:normal;font-stretch:normal;font-size:40px;font-family:'Ink Free';-inkscape-font-specification:'Ink Free, Normal';font-variant-ligatures:normal;font-variant-caps:normal;font-variant-numeric:normal;font-feature-settings:normal;text-align:start;writing-mode:lr-tb;text-anchor:start"
         d="m 121.6975,112.17274 q 0,0.36 -0.52,0.84 -0.48,0.44 -0.84,0.44 -0.28,0 -0.56,-0.24 -0.24,-0.24 -0.56,-0.68 -0.28,-0.4 -0.76,-0.68 -0.44,-0.28 -0.92,-0.28 -1.16,0 -3.12,3.08 -1.96,3.04 -3.84,7.68 0.04,0.92 0.12,2.32 0.12,1.4 0.16,2.08 l 0.12,1.6 q 0,0.56 -0.24,0.96 -0.24,0.44 -0.88,0.44 -0.68,0 -0.88,-1.8 -0.2,-1.84 -0.24,-5.32 -0.04,-0.88 -0.08,-2.52 0,-1.64 -0.08,-3.92 -0.12,-3.44 -0.12,-4.92 0,-0.92 1.12,-0.92 0.68,0 0.8,0.6 0.16,0.56 0.16,2.2 v 6.36 q 1.2,-3.08 2.6,-5.32 1.4,-2.24 2.72,-3.4 1.36,-1.2 2.4,-1.2 0.88,0 1.68,0.4 0.8,0.4 1.28,1.04 0.48,0.6 0.48,1.16 z" />
      <path
         id="path837"
         style="font-style:normal;font-variant:normal;font-weight:normal;font-stretch:normal;font-size:40px;font-family:'Ink Free';-inkscape-font-specification:'Ink Free, Normal';font-variant-ligatures:normal;font-variant-caps:normal;font-variant-numeric:normal;font-feature-settings:normal;text-align:start;writing-mode:lr-tb;text-anchor:start"
         d="m 139.66,118.81274 q 0.28,0 0.28,0.6 0,0.72 -1.08,3.16 -1.04,2.44 -3.2,4.52 -2.12,2.08 -5.24,2.08 -2.56,0 -4.28,-1.6 -1.72,-1.6 -1.72,-4.92 0,-3.12 1.44,-6.16 1.44,-3.08 3.76,-5 2.32,-1.96 4.8,-1.96 1.48,0 2.48,0.68 1.04,0.64 1.04,1.88 0,1.4 -1.6,2.72 -1.56,1.32 -4.08,2.32 -2.52,1 -5.2,1.44 -0.48,1.84 -0.48,3.6 0,2.32 1.08,3.6 1.12,1.28 3.16,1.28 3.08,0 5,-2.2 1.92,-2.2 3.2,-4.96 0.08,-0.16 0.28,-0.6 0.2,-0.48 0.36,-0.48 z m -3.52,-6.28 q 0,-0.64 -0.68,-1 -0.64,-0.36 -1.52,-0.36 -1.52,0 -2.92,1 -1.4,1 -2.36,2.4 -0.92,1.4 -1.2,2.48 1.84,-0.2 3.88,-1.04 2.04,-0.84 3.4,-1.84 1.4,-1 1.4,-1.64 z" />
      <path
         id="path839"
         style="font-style:normal;font-variant:normal;font-weight:normal;font-stretch:normal;font-size:40px;font-family:'Ink Free';-inkscape-font-specification:'Ink Free, Normal';font-variant-ligatures:normal;font-variant-caps:normal;font-variant-numeric:normal;font-feature-settings:normal;text-align:start;writing-mode:lr-tb;text-anchor:start"
         d="m 171.17812,126.45274 q 0.04,0.28 0.32001,0.6 0.27999,0.28 0.27999,0.48 0,0.48 -0.4,1.12 -0.4,0.6 -0.8,0.6 -0.68,0 -1.04,-0.84 -0.36,-0.84 -0.36,-1.96 0,-0.96 0.12,-5.76 l 0.04,-1.52 q 0,-0.92 -0.48,-1.32 -1.8,3.04 -3.36,5.28 -1.55999,2.24 -3.96,4.24 -2.4,1.96 -5.04,1.96 -1.28,0 -2,-0.8 -0.68,-0.8 -0.68,-2.08 0,-1.6 1.44,-4.36 1.44,-2.8 3.68001,-5.64 2.23999,-2.88 4.47999,-4.72 1.48,-1.2 2.36,-1.6 0.88,-0.44 1.56,-0.44 0.64,0 1.32,0.4 0.68,0.4 1.16,1.12 0.48,0.72 0.48,1.64 0,1.24 -0.68,2.36 l 0.68,-0.2 q 0.44,0 0.52,1.08 0.04,0.64 0.08,2.6 0.08,1.96 0.12,3.24 0.04,1.32 0.08,2.56 0.04,1.24 0.08,1.96 z m -14.12,0.72 q 2.16,0 4.16,-1.6 2,-1.6 3.56,-3.8 1.6,-2.24 3.52,-5.48 0.48,-1.2 0.48,-2.6 0,-0.84 -0.52,-1.44 -0.48,-0.64 -1.31999,-0.64 -1,0 -2.56001,1.36 -1.8,1.52 -3.8,4.08 -2,2.52 -3.32,5 -1.31999,2.48 -1.31999,3.92 0,1.2 1.11999,1.2 z" />
      <path
         id="path841"
         style="font-style:normal;font-variant:normal;font-weight:normal;font-stretch:normal;font-size:40px;font-family:'Ink Free';-inkscape-font-specification:'Ink Free, Normal';font-variant-ligatures:normal;font-variant-caps:normal;font-variant-numeric:normal;font-feature-settings:normal;text-align:start;writing-mode:lr-tb;text-anchor:start"
         d="m 189.51,112.17274 q 0,0.36 -0.52,0.84 -0.48,0.44 -0.84,0.44 -0.28,0 -0.56,-0.24 -0.24,-0.24 -0.56,-0.68 -0.28,-0.4 -0.76,-0.68 -0.44,-0.28 -0.92,-0.28 -1.16,0 -3.12,3.08 -1.96,3.04 -3.84,7.68 0.04,0.92 0.12,2.32 0.12,1.4 0.16,2.08 l 0.12,1.6 q 0,0.56 -0.24,0.96 -0.24,0.44 -0.88,0.44 -0.68,0 -0.88,-1.8 -0.2,-1.84 -0.24,-5.32 -0.04,-0.88 -0.08,-2.52 0,-1.64 -0.08,-3.92 -0.12,-3.44 -0.12,-4.92 0,-0.92 1.12,-0.92 0.68,0 0.8,0.6 0.16,0.56 0.16,2.2 v 6.36 q 1.2,-3.08 2.6,-5.32 1.4,-2.24 2.72,-3.4 1.36,-1.2 2.4,-1.2 0.88,0 1.68,0.4 0.8,0.4 1.28,1.04 0.48,0.6 0.48,1.16 z" />
      <path
         id="path843"
         style="font-style:normal;font-variant:normal;font-weight:normal;font-stretch:normal;font-size:40px;font-family:'Ink Free';-inkscape-font-specification:'Ink Free, Normal';font-variant-ligatures:normal;font-variant-caps:normal;font-variant-numeric:normal;font-feature-settings:normal;text-align:start;writing-mode:lr-tb;text-anchor:start"
         d="m 207.4725,118.81274 q 0.28,0 0.28,0.6 0,0.72 -1.08,3.16 -1.04,2.44 -3.2,4.52 -2.12,2.08 -5.24,2.08 -2.56,0 -4.28,-1.6 -1.72,-1.6 -1.72,-4.92 0,-3.12 1.44,-6.16 1.44,-3.08 3.76,-5 2.32,-1.96 4.8,-1.96 1.48,0 2.48,0.68 1.04,0.64 1.04,1.88 0,1.4 -1.6,2.72 -1.56,1.32 -4.08,2.32 -2.52,1 -5.2,1.44 -0.48,1.84 -0.48,3.6 0,2.32 1.08,3.6 1.12,1.28 3.16,1.28 3.08,0 5,-2.2 1.92,-2.2 3.2,-4.96 0.08,-0.16 0.28,-0.6 0.2,-0.48 0.36,-0.48 z m -3.52,-6.28 q 0,-0.64 -0.68,-1 -0.64,-0.36 -1.52,-0.36 -1.52,0 -2.92,1 -1.4,1 -2.36,2.4 -0.92,1.4 -1.2,2.48 1.84,-0.2 3.88,-1.04 2.04,-0.84 3.4,-1.84 1.4,-1 1.4,-1.64 z" />
      <path
         id="path845"
         style="font-style:normal;font-variant:normal;font-weight:normal;font-stretch:normal;font-size:40px;font-family:'Ink Free';-inkscape-font-specification:'Ink Free, Normal';font-variant-ligatures:normal;font-variant-caps:normal;font-variant-numeric:normal;font-feature-settings:normal;text-align:start;writing-mode:lr-tb;text-anchor:start"
         d="m 236.83062,123.41274 q 0,1.76 -1.44,3.4 -1.4,1.6 -3.72,2.56 -2.32,1 -4.84,1 -1.72,0 -2.32,-0.32 -0.6,-0.32 -0.6,-0.88 0,-0.36 0.92,-1.24 0.92001,-0.92 1.24,-0.92 0.48,0 0.48,0.2 0,0.16 -0.2,0.32 -0.2,0.16 -0.2,0.28 0,0.16 0.48,0.32 0.52,0.16 1.24,0.16 1.68,0 3.36,-0.6 1.72,-0.64 2.8,-1.64 1.08,-1 1.08,-2.12 0,-1.08 -0.68,-1.72 -0.67999,-0.64 -1.72,-0.92 -1,-0.32 -3.4,-0.88 -2.64,-0.6 -4.12,-1.04 -1.43999,-0.48 -2.32,-1.16 -0.88,-0.72 -0.88,-1.8 0,-1.92 1.88,-3.52 1.88001,-1.6 4.32,-2.52 2.44,-0.92 3.76,-0.92 1.36,0 1.36,0.8 0,0.48 -0.32,1.08 -0.32,0.56 -0.96,0.56 -0.24,0 -0.52,-0.16 -0.28,-0.2 -0.56,-0.2 -0.8,0 -2.52,0.52 -1.72,0.52 -3.12,1.56 -1.4,1.04 -1.4,2.52 0,0.96 1.08,1.44 1.12,0.44 4.12,1.12 0.36,0.12 0.72,0.2 0.36,0.04 0.64,0.12 3.08,0.72 4.72,1.64 1.64,0.92 1.64,2.76 z" />
      <path
         id="path847"
         style="font-style:normal;font-variant:normal;font-weight:normal;font-stretch:normal;font-size:40px;font-family:'Ink Free';-inkscape-font-specification:'Ink Free, Normal';font-variant-ligatures:normal;font-variant-caps:normal;font-variant-numeric:normal;font-feature-settings:normal;text-align:start;writing-mode:lr-tb;text-anchor:start"
         d="m 254.12313,120.73274 q 0,1.56 -1.16001,3.6 -1.16,2.04 -3.28,3.52 -2.11999,1.44 -4.84,1.44 -2.68,0 -3.96,-1.48 -1.28,-1.48 -1.28,-3.68 0,-1.92 0.68,-4.76 0.72,-2.84 2,-5.08 0.08,-0.16 0.64,-1.16 0.6,-1.04 1.32,-1.56 0.72,-0.56 1.52,-0.56 0.36,0 0.64,0.2 0.32,0.16 0.32,0.44 0,0.08 -0.24,0.4 -0.2,0.28 -0.32,0.44 -1.36,1.64 -2.2,3.24 -1.12,2.04 -1.76,4.04 -0.6,2 -0.6,4.36 0,3.16 3.84,3.16 1.8,0 3.32,-1.04 1.56,-1.04 2.48,-2.52 0.92,-1.52 0.92,-2.76 0,-1.4 -0.92,-2.44 -0.92,-1.04 -2.52,-2.2 -1.04,-0.76 -1.52,-1.24 -0.48,-0.48 -0.48,-0.8 0,-0.48 0.68,-0.76 0.68,-0.32 1.6,-0.32 0.52,0 0.68,0.08 0.16,0.04 0.16,0.2 0,0.08 -0.16,0.28 -0.11999,0.16 -0.11999,0.28 0,0.12 0.79999,0.8 1.6,1.32 2.68,2.68 1.08001,1.36 1.08001,3.2 z" />
      <path
         id="path849"
         style="font-style:normal;font-variant:normal;font-weight:normal;font-stretch:normal;font-size:40px;font-family:'Ink Free';-inkscape-font-specification:'Ink Free, Normal';font-variant-ligatures:normal;font-variant-caps:normal;font-variant-numeric:normal;font-feature-settings:normal;text-align:start;writing-mode:lr-tb;text-anchor:start"
         d="m 282.5925,128.61274 q 0,0.48 -0.32,0.8 -0.32,0.36 -0.84,0.36 -0.72,0 -0.72,-0.72 0,-8.08 -0.52,-12.36 -0.52,-4.32 -1.8,-4.32 -2.16,0 -6.32,15.08 v 0.04 q 0,0.48 -0.32,0.84 -0.32,0.32 -0.84,0.32 -0.72,0 -0.72,-0.72 0,-1.6 0.16,-4.96 0.16,-3.76 0.16,-5.92 0,-3 -0.2,-4.24 -0.16,-1.28 -0.76,-1.28 -1.36,0 -3.44,5 -2.08,4.96 -4.36,11.72 l -0.36,1.04 q -0.16,0.4 -0.48,0.68 -0.28,0.28 -0.64,0.28 -0.48,0 -0.64,-0.08 -0.16,-0.08 -0.2,-0.48 -0.2,-1.96 -0.32,-5.24 -0.08,-0.84 -0.16,-2.76 -0.4,-6.76 -0.72,-9.12 -0.32,-2.4 -0.32,-2.68 0,-0.32 0.32,-0.76 0.32,-0.44 0.6,-0.44 0.64,0 1.04,0.92 0.2,0.44 0.44,3.52 0.24,3.08 0.4,7.64 l 0.2,6.12 q 2.2,-6.8 4.56,-12.32 2.36,-5.56 4.32,-5.56 1.32,0 1.8,1.92 0.48,1.92 0.48,5.56 0,1.92 -0.08,5.52 l -0.04,1.84 q 1.64,-5.72 3.24,-9.6 1.64,-3.88 3.28,-3.88 4.12,0 4.12,18.24 z" />
      <path
         id="path851"
         style="font-style:normal;font-variant:normal;font-weight:normal;font-stretch:normal;font-size:40px;font-family:'Ink Free';-inkscape-font-specification:'Ink Free, Normal';font-variant-ligatures:normal;font-variant-caps:normal;font-variant-numeric:normal;font-feature-settings:normal;text-align:start;writing-mode:lr-tb;text-anchor:start"
         d="m 302.39438,118.81274 q 0.27999,0 0.27999,0.6 0,0.72 -1.07999,3.16 -1.04001,2.44 -3.2,4.52 -2.12,2.08 -5.24,2.08 -2.56,0 -4.28001,-1.6 -1.71999,-1.6 -1.71999,-4.92 0,-3.12 1.44,-6.16 1.43999,-3.08 3.75999,-5 2.32,-1.96 4.80001,-1.96 1.47999,0 2.47999,0.68 1.04,0.64 1.04,1.88 0,1.4 -1.6,2.72 -1.56,1.32 -4.08,2.32 -2.52,1 -5.2,1.44 -0.48,1.84 -0.48,3.6 0,2.32 1.08001,3.6 1.11999,1.28 3.15999,1.28 3.08,0 5,-2.2 1.92,-2.2 3.2,-4.96 0.08,-0.16 0.28,-0.6 0.2,-0.48 0.36001,-0.48 z m -3.52001,-6.28 q 0,-0.64 -0.68,-1 -0.64,-0.36 -1.52,-0.36 -1.51999,0 -2.92,1 -1.4,1 -2.35999,2.4 -0.92001,1.4 -1.20001,2.48 1.84,-0.2 3.88,-1.04 2.04,-0.84 3.4,-1.84 1.4,-1 1.4,-1.64 z" />
      <path
         id="path853"
         style="font-style:normal;font-variant:normal;font-weight:normal;font-stretch:normal;font-size:40px;font-family:'Ink Free';-inkscape-font-specification:'Ink Free, Normal';font-variant-ligatures:normal;font-variant-caps:normal;font-variant-numeric:normal;font-feature-settings:normal;text-align:start;writing-mode:lr-tb;text-anchor:start"
         d="m 329.4725,120.21274 q 0,0.24 -0.84,1.48 -0.8,1.24 -1.64,2.24 -2.08,2.52 -3.76,3.88 -1.64,1.36 -3.44,1.36 -1.52,0 -2.52,-1.32 -0.96,-1.32 -0.96,-3.04 0,-2.56 1.36,-6.48 1.36,-3.92 3.44,-6.8 2.08,-2.88 4.16,-2.88 0.88,0 1.52,0.64 0.36,0.36 0.68,0.96 0.32,0.6 0.32,1.08 0,0.68 -0.2,1.6 -0.16,0.88 -0.36,0.88 -0.4,0 -0.52,-0.44 -0.12,-0.44 -0.16,-1.12 -0.12,-1.04 -0.24,-1.36 -0.12,-0.36 -0.36,-0.36 -1.88,0 -3.64,2.64 -1.76,2.6 -2.88,6.08 -1.12,3.44 -1.12,5.32 0,2.64 1.76,2.64 1.28,0 2.32,-0.64 1.08,-0.64 2.24,-1.8 2.16,-2.2 3.36,-3.8 0.08,-0.12 0.44,-0.6 0.4,-0.52 0.56,-0.52 0.48,0 0.48,0.36 z" />
      <path
         id="path855"
         style="font-style:normal;font-variant:normal;font-weight:normal;font-stretch:normal;font-size:40px;font-family:'Ink Free';-inkscape-font-specification:'Ink Free, Normal';font-variant-ligatures:normal;font-variant-caps:normal;font-variant-numeric:normal;font-feature-settings:normal;text-align:start;writing-mode:lr-tb;text-anchor:start"
         d="m 346.07625,120.73274 q 0,1.56 -1.16,3.6 -1.16,2.04 -3.28,3.52 -2.12,1.44 -4.84,1.44 -2.68,0 -3.96,-1.48 -1.28,-1.48 -1.28,-3.68 0,-1.92 0.68,-4.76 0.72,-2.84 2,-5.08 0.08,-0.16 0.64,-1.16 0.6,-1.04 1.32,-1.56 0.72,-0.56 1.52,-0.56 0.36,0 0.64,0.2 0.32,0.16 0.32,0.44 0,0.08 -0.24,0.4 -0.2,0.28 -0.32,0.44 -1.36,1.64 -2.2,3.24 -1.12,2.04 -1.76,4.04 -0.6,2 -0.6,4.36 0,3.16 3.84,3.16 1.8,0 3.32,-1.04 1.56,-1.04 2.48,-2.52 0.92,-1.52 0.92,-2.76 0,-1.4 -0.92,-2.44 -0.92,-1.04 -2.52,-2.2 -1.04,-0.76 -1.52,-1.24 -0.48,-0.48 -0.48,-0.8 0,-0.48 0.68,-0.76 0.68,-0.32 1.6,-0.32 0.52,0 0.68,0.08 0.16,0.04 0.16,0.2 0,0.08 -0.16,0.28 -0.12,0.16 -0.12,0.28 0,0.12 0.8,0.8 1.6,1.32 2.68,2.68 1.08,1.36 1.08,3.2 z" />
      <path
         id="path857"
         style="font-style:normal;font-variant:normal;font-weight:normal;font-stretch:normal;font-size:40px;font-family:'Ink Free';-inkscape-font-specification:'Ink Free, Normal';font-variant-ligatures:normal;font-variant-caps:normal;font-variant-numeric:normal;font-feature-settings:normal;text-align:start;writing-mode:lr-tb;text-anchor:start"
         d="m 363.18563,120.73274 q 0,1.56 -1.16001,3.6 -1.15999,2.04 -3.27999,3.52 -2.12,1.44 -4.84001,1.44 -2.68,0 -3.96,-1.48 -1.28,-1.48 -1.28,-3.68 0,-1.92 0.68,-4.76 0.72,-2.84 2,-5.08 0.08,-0.16 0.64001,-1.16 0.59999,-1.04 1.32,-1.56 0.71999,-0.56 1.51999,-0.56 0.36001,0 0.64,0.2 0.32,0.16 0.32,0.44 0,0.08 -0.24,0.4 -0.2,0.28 -0.32,0.44 -1.35999,1.64 -2.2,3.24 -1.12,2.04 -1.76,4.04 -0.6,2 -0.6,4.36 0,3.16 3.84,3.16 1.80001,0 3.32,-1.04 1.56,-1.04 2.48001,-2.52 0.91999,-1.52 0.91999,-2.76 0,-1.4 -0.91999,-2.44 -0.92001,-1.04 -2.52001,-2.2 -1.03999,-0.76 -1.52,-1.24 -0.48,-0.48 -0.48,-0.8 0,-0.48 0.68,-0.76 0.68,-0.32 1.6,-0.32 0.52,0 0.68001,0.08 0.15999,0.04 0.15999,0.2 0,0.08 -0.15999,0.28 -0.12,0.16 -0.12,0.28 0,0.12 0.8,0.8 1.59999,1.32 2.67999,2.68 1.08001,1.36 1.08001,3.2 z" />
      <path
         id="path859"
         style="font-style:normal;font-variant:normal;font-weight:normal;font-stretch:normal;font-size:40px;font-family:'Ink Free';-inkscape-font-specification:'Ink Free, Normal';font-variant-ligatures:normal;font-variant-caps:normal;font-variant-numeric:normal;font-feature-settings:normal;text-align:start;writing-mode:lr-tb;text-anchor:start"
         d="m 370.295,127.93274 q 0,0.4 -0.52,0.64 -0.52,0.24 -1.16,0.24 -0.48,0 -0.92,-1.12 -0.4,-1.16 -0.4,-3.48 0.04,-4.52 0.12,-10.92 0.12,-6.4 0.2,-9.64 0.04,-1.16 0.4,-2.16 0.4,-1 1.36,-1 0.32,0 0.4,0.36 0.12,0.32 0.12,1.28 0,0.04 -0.04,0.28 0,0.2 0,0.76 -0.72,10.52 -0.72,20.52 0,1.28 0.56,2.72 0.6,1.44 0.6,1.52 z" />
      <path
         id="path861"
         style="font-style:normal;font-variant:normal;font-weight:normal;font-stretch:normal;font-size:40px;font-family:'Ink Free';-inkscape-font-specification:'Ink Free, Normal';font-variant-ligatures:normal;font-variant-caps:normal;font-variant-numeric:normal;font-feature-settings:normal;text-align:start;writing-mode:lr-tb;text-anchor:start"
         d="m 400.26812,123.41274 q 0,1.76 -1.44,3.4 -1.39999,1.6 -3.72,2.56 -2.32,1 -4.84,1 -1.71999,0 -2.32,-0.32 -0.6,-0.32 -0.6,-0.88 0,-0.36 0.92,-1.24 0.92001,-0.92 1.24,-0.92 0.48001,0 0.48001,0.2 0,0.16 -0.20001,0.32 -0.2,0.16 -0.2,0.28 0,0.16 0.48,0.32 0.52,0.16 1.24001,0.16 1.68,0 3.35999,-0.6 1.72,-0.64 2.8,-1.64 1.08001,-1 1.08001,-2.12 0,-1.08 -0.68,-1.72 -0.68,-0.64 -1.72001,-0.92 -1,-0.32 -3.39999,-0.88 -2.64001,-0.6 -4.12001,-1.04 -1.43999,-0.48 -2.31999,-1.16 -0.88,-0.72 -0.88,-1.8 0,-1.92 1.88,-3.52 1.88,-1.6 4.31999,-2.52 2.44,-0.92 3.76,-0.92 1.36001,0 1.36001,0.8 0,0.48 -0.32,1.08 -0.32001,0.56 -0.96001,0.56 -0.24,0 -0.52,-0.16 -0.28,-0.2 -0.56,-0.2 -0.8,0 -2.51999,0.52 -1.72001,0.52 -3.12,1.56 -1.40001,1.04 -1.40001,2.52 0,0.96 1.08001,1.44 1.12,0.44 4.12,1.12 0.35999,0.12 0.71999,0.2 0.36,0.04 0.64,0.12 3.08001,0.72 4.72,1.64 1.64,0.92 1.64,2.76 z" />
      <path
         id="path863"
         style="font-style:normal;font-variant:normal;font-weight:normal;font-stretch:normal;font-size:40px;font-family:'Ink Free';-inkscape-font-specification:'Ink Free, Normal';font-variant-ligatures:normal;font-variant-caps:normal;font-variant-numeric:normal;font-feature-settings:normal;text-align:start;writing-mode:lr-tb;text-anchor:start"
         d="m 421.12063,129.57274 q 0,0.48 -0.32,0.8 -0.32001,0.36 -0.84001,0.36 -0.39999,0 -0.68,-0.2 -0.27999,-0.16 -0.27999,-0.48 l 0.08,-2.76 q 0.2,-4.92 0.2,-8.04 0,-4.56 -0.64,-6.36 -0.63999,-1.84 -1.48,-1.84 -1.88,0 -4.72,5.84 -2.84,5.8 -5.48,12.68 -0.2,0.56 -0.56,1.08 -0.32,0.52 -0.68,0.52 -0.88,0 -0.88,-0.56 0,-2.44 -0.2,-9.12 -0.2,-6.72 -0.32,-8.84 -0.36,-7.16 -0.68,-8.84 -0.32,-1.68 -0.32,-1.8 0,-0.4 0.44,-0.6 0.44,-0.2 1.12,-0.2 0.56,0 0.80001,2.56 0.27999,2.52 0.39999,6.48 l 0.04,1.12 q 0.08,1.24 0.12,7.12 0.04,5.84 0.04,8.6 1.84001,-4.6 3.44,-8.2 1.64001,-3.6 3.76,-6.72 2.12,-3.16 3.92,-3.16 1.52,0 2.56,2.56 1.04001,2.52 1.04001,7.56 0,2.24 0.08,6.24 z" />
      <path
         id="path865"
         style="font-style:normal;font-variant:normal;font-weight:normal;font-stretch:normal;font-size:40px;font-family:'Ink Free';-inkscape-font-specification:'Ink Free, Normal';font-variant-ligatures:normal;font-variant-caps:normal;font-variant-numeric:normal;font-feature-settings:normal;text-align:start;writing-mode:lr-tb;text-anchor:start"
         d="m 428.66437,103.97274 q 0,0.6 -1.31999,0.6 -0.68001,0 -1.40001,-0.56 -0.68,-0.56 -0.68,-0.92 0,-0.44 0.4,-0.84 0.44,-0.4 0.88,-0.4 0,0 0.28,0.12 0.32001,0.08 0.72,0.52 0.32,0.32 0.72,0.84 0.4,0.52 0.4,0.64 z m 1,25.16 q 0,0.4 -0.36,0.6 -0.32,0.24 -0.76,0.2 -0.56,-0.04 -0.83999,-1.8 -0.24,-1.76 -0.52001,-6.68 -0.15999,-3.24 -0.27999,-6.32 -0.12001,-3.12 -0.16001,-4.8 0,-0.44 0.12,-0.64 0.16001,-0.24 0.56,-0.24 0.92001,0 1.16001,0.76 0.23999,0.76 0.23999,2.92 l -0.04,4.72 q 0,4.04 0.24001,6.48 0,0.12 0.35999,2.56 0.28,1.68 0.28,2.24 z" />
      <path
         id="path867"
         style="font-style:normal;font-variant:normal;font-weight:normal;font-stretch:normal;font-size:40px;font-family:'Ink Free';-inkscape-font-specification:'Ink Free, Normal';font-variant-ligatures:normal;font-variant-caps:normal;font-variant-numeric:normal;font-feature-settings:normal;text-align:start;writing-mode:lr-tb;text-anchor:start"
         d="m 452.49437,112.45274 q 0,0.68 -0.59999,1.04 -0.56,0.36 -2.08001,0.56 -3.68,0.64 -4.12,0.72 l -2.59999,0.44 q 0,2.08 0.04,4.36 0.08,2.28 0.20001,4 0.15999,2.32 0.56,3.56 0.39999,1.24 0.44,1.4 0,0.4 -0.52001,0.72 -0.47999,0.36 -0.91999,0.36 -0.24,0 -0.40001,-0.16 -0.15999,-0.12 -0.27999,-0.44 -0.24001,-0.56 -0.48001,-2.08 -0.2,-1.52 -0.32,-3.36 -0.12,-1.64 -0.19999,-3.8 -0.04,-2.2 -0.04,-4.24 -2.24,0.36 -4.6,0.88 -2.11999,0.44 -2.52,0.44 -0.48,0 -0.92,-0.28 -0.4,-0.28 -0.4,-0.76 0,-0.52 0.36001,-0.68 0.36,-0.16 1.19999,-0.16 0.60001,0 1.76,-0.2 1.16001,-0.24 1.48,-0.32 2.68001,-0.52 3.64,-0.68 0,-0.84 -0.08,-2.2 -0.08,-1.84 -0.08,-2.8 0,-1.56 0.08,-2.4 0.12,-0.88 0.39999,-1.56 0.32,-0.8 1.2,-0.8 0.36,0 0.48,0.12 0.12,0.12 0.12,0.44 0,0.24 -0.19999,1.4 -0.2,1.16 -0.2,3.08 0,1.48 0.08,3.32 l 0.04,1.08 q 1.8,-0.28 7.12,-1.48 0.32001,-0.08 0.52001,-0.56 0.24,-0.48 0.47999,-0.48 0.44,0 0.88,0.52 0.48,0.48 0.48,1 z" />
      <path
         id="path869"
         style="font-style:normal;font-variant:normal;font-weight:normal;font-stretch:normal;font-size:40px;font-family:'Ink Free';-inkscape-font-specification:'Ink Free, Normal';font-variant-ligatures:normal;font-variant-caps:normal;font-variant-numeric:normal;font-feature-settings:normal;text-align:start;writing-mode:lr-tb;text-anchor:start"
         d="m 479.26437,111.33274 q 0,0.92 -0.44,4 -0.47999,3.52 -0.52,3.96 -0.52,4.92 -0.76,7.52 -0.19999,2.56 -0.19999,4.64 0,1.72 0.24,2.72 0.27999,1 0.56,1.56 0.32,0.6 0.32,0.72 0,0.36 -0.64001,0.64 -0.64,0.28 -1.32,0.28 -0.52,0 -0.84,-1.4 -0.28,-1.4 -0.28,-4.36 0,-2.24 0.44,-6.04 l 0.6,-5.52 q -1.07999,2.08 -2.68,4 -1.56,1.88 -3.24,1.88 -1.56,0 -2.79999,-2.72 -1.24,-2.72 -1.96001,-6.16 -0.68,-3.44 -0.68,-5.04 0,-1 0.6,-1 0.88,0 1.12,1.64 1.52,11.12 4.24001,11.12 1.07999,0 1.88,-0.84 0.83999,-0.88 1.95999,-2.68 0.52,-0.84 1.12,-2.24 0.60001,-1.4 0.92001,-2.32 l 0.27999,-4.04 q 0.08,-0.92 0.24,-1.28 0.16001,-0.4 0.64,-0.4 0.40001,0 0.8,0.48 0.4,0.44 0.4,0.88 z" />
      <path
         id="path871"
         style="font-style:normal;font-variant:normal;font-weight:normal;font-stretch:normal;font-size:40px;font-family:'Ink Free';-inkscape-font-specification:'Ink Free, Normal';font-variant-ligatures:normal;font-variant-caps:normal;font-variant-numeric:normal;font-feature-settings:normal;text-align:start;writing-mode:lr-tb;text-anchor:start"
         d="m 496.93563,120.73274 q 0,1.56 -1.16001,3.6 -1.15999,2.04 -3.27999,3.52 -2.12,1.44 -4.84001,1.44 -2.68,0 -3.96,-1.48 -1.28,-1.48 -1.28,-3.68 0,-1.92 0.68,-4.76 0.72,-2.84 2,-5.08 0.08,-0.16 0.64001,-1.16 0.59999,-1.04 1.32,-1.56 0.71999,-0.56 1.51999,-0.56 0.36001,0 0.64,0.2 0.32,0.16 0.32,0.44 0,0.08 -0.24,0.4 -0.2,0.28 -0.32,0.44 -1.35999,1.64 -2.2,3.24 -1.12,2.04 -1.76,4.04 -0.6,2 -0.6,4.36 0,3.16 3.84,3.16 1.80001,0 3.32,-1.04 1.56,-1.04 2.48001,-2.52 0.91999,-1.52 0.91999,-2.76 0,-1.4 -0.91999,-2.44 -0.92001,-1.04 -2.52001,-2.2 -1.03999,-0.76 -1.52,-1.24 -0.48,-0.48 -0.48,-0.8 0,-0.48 0.68,-0.76 0.68,-0.32 1.6,-0.32 0.52,0 0.68001,0.08 0.15999,0.04 0.15999,0.2 0,0.08 -0.15999,0.28 -0.12,0.16 -0.12,0.28 0,0.12 0.8,0.8 1.59999,1.32 2.67999,2.68 1.08001,1.36 1.08001,3.2 z" />
      <path
         id="path873"
         style="font-style:normal;font-variant:normal;font-weight:normal;font-stretch:normal;font-size:40px;font-family:'Ink Free';-inkscape-font-specification:'Ink Free, Normal';font-variant-ligatures:normal;font-variant-caps:normal;font-variant-numeric:normal;font-feature-settings:normal;text-align:start;writing-mode:lr-tb;text-anchor:start"
         d="m 516.845,128.33274 q 0,0.64 -0.36,1 -0.36,0.36 -1,0.36 -0.8,0 -1.48,-1.68 -0.64,-1.68 -0.8,-3.48 -0.16,-1.72 -0.24,-6.96 -0.04,-0.84 -0.04,-1.68 0,-0.88 -0.04,-1.48 -1.16,2.76 -3.16,6.28 -2,3.52 -4.04,6.04 -2,2.52 -3.28,2.52 -1.32,0 -1.76,-1.4 -0.4,-1.4 -0.4,-4.44 0,-2.84 0.72,-6.44 0.76,-3.6 1.72,-5.48 0.4,-0.84 0.68,-1.12 0.28,-0.32 0.64,-0.32 1,0 1,0.4 0,0.2 -0.4,0.92 -1.08,2 -1.88,4.8 -0.8,2.8 -0.8,7.52 0,3.16 0.88,3.16 1.04,0 2.8,-2.28 1.8,-2.32 3.56,-5.52 1.76,-3.2 2.68,-5.56 0.32,-0.8 0.72,-2.48 0.12,-0.68 0.24,-0.96 0.12,-0.32 0.28,-0.32 0.44,0 0.96,0.36 0.52,0.36 0.52,0.76 0,1.92 0.12,6.6 0.16,4.64 0.36,6.44 0.16,1.56 0.56,2.44 0.44,0.88 0.84,1.4 0.4,0.48 0.4,0.6 z" />
      <path
         id="path875"
         style="font-style:normal;font-variant:normal;font-weight:normal;font-stretch:normal;font-size:40px;font-family:'Ink Free';-inkscape-font-specification:'Ink Free, Normal';font-variant-ligatures:normal;font-variant-caps:normal;font-variant-numeric:normal;font-feature-settings:normal;text-align:start;writing-mode:lr-tb;text-anchor:start"
         d="m 543.69125,120.21274 q 0,0.24 -0.84,1.48 -0.8,1.24 -1.64,2.24 -2.08,2.52 -3.76,3.88 -1.64,1.36 -3.44,1.36 -1.52,0 -2.52,-1.32 -0.96,-1.32 -0.96,-3.04 0,-2.56 1.36,-6.48 1.36,-3.92 3.44,-6.8 2.08,-2.88 4.16,-2.88 0.88,0 1.52,0.64 0.36,0.36 0.68,0.96 0.32,0.6 0.32,1.08 0,0.68 -0.2,1.6 -0.16,0.88 -0.36,0.88 -0.4,0 -0.52,-0.44 -0.12,-0.44 -0.16,-1.12 -0.12,-1.04 -0.24,-1.36 -0.12,-0.36 -0.36,-0.36 -1.88,0 -3.64,2.64 -1.76,2.6 -2.88,6.08 -1.12,3.44 -1.12,5.32 0,2.64 1.76,2.64 1.28,0 2.32,-0.64 1.08,-0.64 2.24,-1.8 2.16,-2.2 3.36,-3.8 0.08,-0.12 0.44,-0.6 0.4,-0.52 0.56,-0.52 0.48,0 0.48,0.36 z" />
      <path
         id="path877"
         style="font-style:normal;font-variant:normal;font-weight:normal;font-stretch:normal;font-size:40px;font-family:'Ink Free';-inkscape-font-specification:'Ink Free, Normal';font-variant-ligatures:normal;font-variant-caps:normal;font-variant-numeric:normal;font-feature-settings:normal;text-align:start;writing-mode:lr-tb;text-anchor:start"
         d="m 562.975,126.45274 q 0.04,0.28 0.32,0.6 0.28,0.28 0.28,0.48 0,0.48 -0.4,1.12 -0.4,0.6 -0.8,0.6 -0.68,0 -1.04,-0.84 -0.36,-0.84 -0.36,-1.96 0,-0.96 0.12,-5.76 l 0.04,-1.52 q 0,-0.92 -0.48,-1.32 -1.8,3.04 -3.36,5.28 -1.56,2.24 -3.96,4.24 -2.4,1.96 -5.04,1.96 -1.28,0 -2,-0.8 -0.68,-0.8 -0.68,-2.08 0,-1.6 1.44,-4.36 1.44,-2.8 3.68,-5.64 2.24,-2.88 4.48,-4.72 1.48,-1.2 2.36,-1.6 0.88,-0.44 1.56,-0.44 0.64,0 1.32,0.4 0.68,0.4 1.16,1.12 0.48,0.72 0.48,1.64 0,1.24 -0.68,2.36 l 0.68,-0.2 q 0.44,0 0.52,1.08 0.04,0.64 0.08,2.6 0.08,1.96 0.12,3.24 0.04,1.32 0.08,2.56 0.04,1.24 0.08,1.96 z m -14.12,0.72 q 2.16,0 4.16,-1.6 2,-1.6 3.56,-3.8 1.6,-2.24 3.52,-5.48 0.48,-1.2 0.48,-2.6 0,-0.84 -0.52,-1.44 -0.48,-0.64 -1.32,-0.64 -1,0 -2.56,1.36 -1.8,1.52 -3.8,4.08 -2,2.52 -3.32,5 -1.32,2.48 -1.32,3.92 0,1.2 1.12,1.2 z" />
      <path
         id="path879"
         style="font-style:normal;font-variant:normal;font-weight:normal;font-stretch:normal;font-size:40px;font-family:'Ink Free';-inkscape-font-specification:'Ink Free, Normal';font-variant-ligatures:normal;font-variant-caps:normal;font-variant-numeric:normal;font-feature-settings:normal;text-align:start;writing-mode:lr-tb;text-anchor:start"
         d="m 581.30687,129.29274 q 0,0.48 -0.39999,0.8 -0.4,0.36 -0.96001,0.36 -0.4,0 -0.67999,-0.2 -0.28,-0.16 -0.28,-0.48 0,-1.64 0.23999,-5.08 0.24,-3.68 0.24,-6.12 0,-2.36 -0.16,-3.84 -0.12,-1.52 -0.64,-1.52 -1.36,0 -3,3.4 -1.6,3.36 -3.67999,8.88 l -0.6,1.6 q -0.16001,0.4 -0.56001,0.64 -0.36,0.24 -0.76,0.24 -0.48,0 -0.64,-0.08 -0.15999,-0.08 -0.2,-0.48 l -0.31999,-3.28 -0.60001,-5.76 q -0.27999,-3.44 -0.67999,-6 -0.12,-0.6 -0.12,-0.92 0,-0.6 0.52,-0.96 0.51999,-0.4 1.19999,-0.4 0.40001,0 0.56,1.92 0.20001,1.92 0.4,6.2 l 0.16,2.12 q 0.32,4.04 0.36,5.12 0.12,-0.24 0.20001,-0.52 0.12,-0.32 0.27999,-0.68 2.16,-5.6 4.04,-9.32 1.92001,-3.76 3.68001,-3.76 1.24,0 1.67999,2.12 0.48,2.08 0.6,5.36 0.12,3.64 0.12,10.64 z" />
      <path
         id="path881"
         style="font-style:normal;font-variant:normal;font-weight:normal;font-stretch:normal;font-size:40px;font-family:'Ink Free';-inkscape-font-specification:'Ink Free, Normal';font-variant-ligatures:normal;font-variant-caps:normal;font-variant-numeric:normal;font-feature-settings:normal;text-align:start;writing-mode:lr-tb;text-anchor:start"
         d="m 611.82875,101.65274 q 0,0.8 -0.08,3.16 -0.08,2.32 -0.08,4.68 0,4.56 0.2,9.32 0.2,4.72 0.32,6.2 0,0.24 0.04,0.52 0.04,0.28 0.08,0.52 0.16,1.12 0.16,1.36 0,0.4 -0.6,0.76 -0.56,0.36 -0.88,0.36 -0.44,0 -0.6,-0.32 -0.12,-0.36 -0.12,-0.96 0,-2.2 0.12,-4.6 l 0.04,-2.24 q 0,-1.12 -0.04,-2.92 -0.04,-1.84 -0.12,-3.08 -2.04,6.56 -4.64,10.88 -2.56,4.28 -5.56,4.28 -1.36,0 -2.32,-1.28 -0.92,-1.28 -0.92,-3.68 0,-3.16 2.12,-6.88 2.16,-3.72 4.88,-6.4 2.76,-2.68 4.08,-2.68 1.28,0 1.28,0.84 0,0.56 -0.4,1.32 -0.36,0.72 -0.84,1.32 -0.44,0.6 -0.52,0.6 -0.08,0 -0.2,-0.04 -0.08,-0.08 -0.08,-0.16 0,-0.2 0.2,-0.68 0.2,-0.48 0.2,-0.64 0,-0.2 -0.04,-0.28 -0.04,-0.08 -0.24,-0.08 -0.84,0 -3.04,2.32 -2.16,2.28 -3.88,5.44 -1.72,3.16 -1.72,5.88 0,0.96 0.4,1.8 0.4,0.84 1.32,0.84 2.92,0 5.4,-4.92 2.52,-4.96 4.36,-11.24 l -0.08,-3.36 q -0.12,-4.44 -0.12,-4.72 0,-2.4 0.2,-3.439996 0.08,-0.4 0.16,-0.56 0.12,-0.16 0.44,-0.16 0.4,0 0.8,0.28 0.4,0.24 0.4,0.68 z" />
      <path
         id="path883"
         style="font-style:normal;font-variant:normal;font-weight:normal;font-stretch:normal;font-size:40px;font-family:'Ink Free';-inkscape-font-specification:'Ink Free, Normal';font-variant-ligatures:normal;font-variant-caps:normal;font-variant-numeric:normal;font-feature-settings:normal;text-align:start;writing-mode:lr-tb;text-anchor:start"
         d="m 630.37312,120.73274 q 0,1.56 -1.16,3.6 -1.15999,2.04 -3.27999,3.52 -2.12,1.44 -4.84001,1.44 -2.67999,0 -3.96,-1.48 -1.28,-1.48 -1.28,-3.68 0,-1.92 0.68001,-4.76 0.71999,-2.84 2,-5.08 0.08,-0.16 0.64,-1.16 0.6,-1.04 1.31999,-1.56 0.72,-0.56 1.52,-0.56 0.36,0 0.64001,0.2 0.31999,0.16 0.31999,0.44 0,0.08 -0.24,0.4 -0.19999,0.28 -0.31999,0.44 -1.36,1.64 -2.20001,3.24 -1.12,2.04 -1.76,4.04 -0.6,2 -0.6,4.36 0,3.16 3.84,3.16 1.8,0 3.32,-1.04 1.56,-1.04 2.48,-2.52 0.92001,-1.52 0.92001,-2.76 0,-1.4 -0.92001,-2.44 -0.92,-1.04 -2.52,-2.2 -1.03999,-0.76 -1.52,-1.24 -0.48,-0.48 -0.48,-0.8 0,-0.48 0.68001,-0.76 0.67999,-0.32 1.59999,-0.32 0.52001,0 0.68001,0.08 0.15999,0.04 0.15999,0.2 0,0.08 -0.15999,0.28 -0.12,0.16 -0.12,0.28 0,0.12 0.79999,0.8 1.6,1.32 2.68001,2.68 1.07999,1.36 1.07999,3.2 z" />
      <path
         id="path885"
         style="font-style:normal;font-variant:normal;font-weight:normal;font-stretch:normal;font-size:40px;font-family:'Ink Free';-inkscape-font-specification:'Ink Free, Normal';font-variant-ligatures:normal;font-variant-caps:normal;font-variant-numeric:normal;font-feature-settings:normal;text-align:start;writing-mode:lr-tb;text-anchor:start"
         d="m 669.76688,113.17274 q 0,4.08 -1.08001,7.8 -1.03999,3.68 -2.43999,6 -1.40001,2.28 -2.24,2.28 -1.20001,0 -2.28001,-2.32 -1.07999,-2.32 -1.8,-5.6 -0.67999,-3.28 -0.84,-5.96 -1.07999,2.08 -2.31999,4.72 -1.24,2.6 -1.96001,4.44 -1.08,2.84 -1.91999,5.52 -0.04,0.08 -0.12,0.36 -0.08,0.32 -0.24,0.44 -0.12,0.12 -0.4,0.12 -0.6,0 -0.92001,-0.28 -0.28,-0.24 -0.52,-0.8 l -0.31999,-1.64 q -0.72,-3.92 -1.52001,-7.44 -0.88,-3.64 -1.8,-6 -0.91999,-2.36 -1.39999,-2.36 -0.16,0 -0.48001,0.28 -0.32,0.24 -0.6,0.4 -0.28,0.16 -0.48,0.08 -0.48,-0.24 -0.48,-0.56 0,-0.32 0.48,-1 0.48,-0.68 1.08,-1.2 0.64,-0.56 1.12,-0.56 0.36001,0 0.60001,0.2 0.27999,0.16 0.55999,0.52 0.52,0.68 1.44001,3.2 0.91999,2.48 1.67999,6.04 l 1.64,7 q 1.84,-5.12 3.36,-8.48 1.56001,-3.4 3.52,-7.04 0.76,-1.36 1.6,-1.36 0.56001,0 0.92,0.4 0.36,0.4 0.36,0.64 0,0.16 -0.19999,0.36 -0.20001,0.2 -0.32001,0.4 -0.31999,0.44 -0.52,1 -0.15999,0.56 -0.15999,1.72 0,1.4 0.48,4.4 0.52,2.96 1.35999,5.32 0.88001,2.36 1.88001,2.36 0.59999,0 1.47999,-2 0.88,-2 1.52001,-4.92 0.67999,-2.96 0.67999,-5.68 0,-0.56 -0.56,-1.28 -0.44,-0.6 -0.44,-0.88 0,-0.24 0.36001,-0.68 0.39999,-0.48 0.79999,-0.48 0.52,0 0.96,0.84 0.48001,0.84 0.48001,1.68 z" />
      <path
         id="path887"
         style="font-style:normal;font-variant:normal;font-weight:normal;font-stretch:normal;font-size:40px;font-family:'Ink Free';-inkscape-font-specification:'Ink Free, Normal';font-variant-ligatures:normal;font-variant-caps:normal;font-variant-numeric:normal;font-feature-settings:normal;text-align:start;writing-mode:lr-tb;text-anchor:start"
         d="m 676.2425,103.97274 q 0,0.6 -1.32,0.6 -0.68,0 -1.4,-0.56 -0.68,-0.56 -0.68,-0.92 0,-0.44 0.4,-0.84 0.44,-0.4 0.88,-0.4 0,0 0.28,0.12 0.32,0.08 0.72,0.52 0.32,0.32 0.72,0.84 0.4,0.52 0.4,0.64 z m 1,25.16 q 0,0.4 -0.36,0.6 -0.32,0.24 -0.76,0.2 -0.56,-0.04 -0.84,-1.8 -0.24,-1.76 -0.52,-6.68 -0.16,-3.24 -0.28,-6.32 -0.12,-3.12 -0.16,-4.8 0,-0.44 0.12,-0.64 0.16,-0.24 0.56,-0.24 0.92,0 1.16,0.76 0.24,0.76 0.24,2.92 l -0.04,4.72 q 0,4.04 0.24,6.48 0,0.12 0.36,2.56 0.28,1.68 0.28,2.24 z" />
      <path
         id="path889"
         style="font-style:normal;font-variant:normal;font-weight:normal;font-stretch:normal;font-size:40px;font-family:'Ink Free';-inkscape-font-specification:'Ink Free, Normal';font-variant-ligatures:normal;font-variant-caps:normal;font-variant-numeric:normal;font-feature-settings:normal;text-align:start;writing-mode:lr-tb;text-anchor:start"
         d="m 700.0725,112.45274 q 0,0.68 -0.6,1.04 -0.56,0.36 -2.08,0.56 -3.68,0.64 -4.12,0.72 l -2.6,0.44 q 0,2.08 0.04,4.36 0.08,2.28 0.2,4 0.16,2.32 0.56,3.56 0.4,1.24 0.44,1.4 0,0.4 -0.52,0.72 -0.48,0.36 -0.92,0.36 -0.24,0 -0.4,-0.16 -0.16,-0.12 -0.28,-0.44 -0.24,-0.56 -0.48,-2.08 -0.2,-1.52 -0.32,-3.36 -0.12,-1.64 -0.2,-3.8 -0.04,-2.2 -0.04,-4.24 -2.24,0.36 -4.6,0.88 -2.12,0.44 -2.52,0.44 -0.48,0 -0.92,-0.28 -0.4,-0.28 -0.4,-0.76 0,-0.52 0.36,-0.68 0.36,-0.16 1.2,-0.16 0.6,0 1.76,-0.2 1.16,-0.24 1.48,-0.32 2.68,-0.52 3.64,-0.68 0,-0.84 -0.08,-2.2 -0.08,-1.84 -0.08,-2.8 0,-1.56 0.08,-2.4 0.12,-0.88 0.4,-1.56 0.32,-0.8 1.2,-0.8 0.36,0 0.48,0.12 0.12,0.12 0.12,0.44 0,0.24 -0.2,1.4 -0.2,1.16 -0.2,3.08 0,1.48 0.08,3.32 l 0.04,1.08 q 1.8,-0.28 7.12,-1.48 0.32,-0.08 0.52,-0.56 0.24,-0.48 0.48,-0.48 0.44,0 0.88,0.52 0.48,0.48 0.48,1 z" />
      <path
         id="path891"
         style="font-style:normal;font-variant:normal;font-weight:normal;font-stretch:normal;font-size:40px;font-family:'Ink Free';-inkscape-font-specification:'Ink Free, Normal';font-variant-ligatures:normal;font-variant-caps:normal;font-variant-numeric:normal;font-feature-settings:normal;text-align:start;writing-mode:lr-tb;text-anchor:start"
         d="m 719.55813,129.57274 q 0,0.48 -0.32001,0.8 -0.31999,0.36 -0.83999,0.36 -0.40001,0 -0.68001,-0.2 -0.27999,-0.16 -0.27999,-0.48 l 0.08,-2.76 q 0.19999,-4.92 0.19999,-8.04 0,-4.56 -0.64,-6.36 -0.63999,-1.84 -1.48,-1.84 -1.88,0 -4.72,5.84 -2.83999,5.8 -5.47999,12.68 -0.20001,0.56 -0.56001,1.08 -0.31999,0.52 -0.67999,0.52 -0.88,0 -0.88,-0.56 0,-2.44 -0.20001,-9.12 -0.2,-6.72 -0.32,-8.84 -0.35999,-7.16 -0.68,-8.84 -0.32,-1.68 -0.32,-1.8 0,-0.4 0.44,-0.6 0.44,-0.2 1.12,-0.2 0.56,0 0.8,2.56 0.28001,2.52 0.40001,6.48 l 0.04,1.12 q 0.08,1.24 0.12,7.12 0.04,5.84 0.04,8.6 1.84001,-4.6 3.44001,-8.2 1.64,-3.6 3.76,-6.72 2.12,-3.16 3.91999,-3.16 1.52,0 2.56001,2.56 1.04,2.52 1.04,7.56 0,2.24 0.08,6.24 z" />
      <path
         id="path893"
         style="font-style:normal;font-variant:normal;font-weight:normal;font-stretch:normal;font-size:40px;font-family:'Ink Free';-inkscape-font-specification:'Ink Free, Normal';font-variant-ligatures:normal;font-variant-caps:normal;font-variant-numeric:normal;font-feature-settings:normal;text-align:start;writing-mode:lr-tb;text-anchor:start"
         d="m 754.34625,122.01274 q 0,2 -1.36,3.96 -1.32,1.92 -3.76,3.12 -2.4,1.24 -5.48,1.24 -2.6,0 -4.12,-0.44 -1.52,-0.4 -1.52,-1.16 0,-0.4 0.56,-1.32 0.6,-0.96 0.92,-0.96 0.48,0 0.48,0.2 0,0.12 -0.16,0.28 -0.12,0.16 -0.12,0.32 0,0.12 0.48,0.36 0.52,0.24 1.56,0.44 1.04,0.2 2.52,0.2 2.36,0 4.12,-0.92 1.8,-0.92 2.76,-2.32 0.96,-1.4 0.96,-2.72 0,-1.72 -1.68,-2.96 -1.64,-1.24 -5.32,-2.36 -3.56,-1.16 -5.52,-1.92 -1.92,-0.8 -3.12,-1.92 -1.2,-1.16 -1.2,-2.8 0,-2.2 2.48,-4.32 2.48,-2.16 6.12,-3.48 3.64,-1.36 6.76,-1.36 1.6,0 1.72,0.64 0.12,0.64 0.12,1.44 0,0.6 -0.44,0.6 -0.2,0 -0.48,-0.12 -0.24,-0.16 -0.44,-0.24 -0.24,-0.08 -0.56,-0.16 -0.32,-0.08 -0.92,-0.08 -2.08,0 -5,1.08 -2.92,1.08 -5.08,2.68 -2.12,1.6 -2.12,3.08 0,1.2 0.96,2.08 1,0.88 2.64,1.52 1.64,0.6 4.64,1.52 4.4,1.28 6.48,2.88 2.12,1.6 2.12,3.92 z" />
      <path
         id="path895"
         style="font-style:normal;font-variant:normal;font-weight:normal;font-stretch:normal;font-size:40px;font-family:'Ink Free';-inkscape-font-specification:'Ink Free, Normal';font-variant-ligatures:normal;font-variant-caps:normal;font-variant-numeric:normal;font-feature-settings:normal;text-align:start;writing-mode:lr-tb;text-anchor:start"
         d="m 777.4575,104.57274 q 0,0.12 -0.64,0.68 -0.64,0.56 -1.12,1.56 -0.52,1.08 -1.08,2.88 -0.52,1.8 -1.52,5.4 l -1.12,4.12 q -2.04,7.4 -2.52,10.44 -0.12,0.68 -0.64,1.12 -0.52,0.48 -1.56,0.48 -0.24,0 -1.72,-3.36 -1.44,-3.4 -3.8,-9.04 -1.44,-3.36 -2.92,-6.24 -1.48,-2.92 -2,-3.36 -0.68,-0.52 -0.68,-1.12 0,-0.28 0.52,-0.76 0.56,-0.48 1.12,-0.48 0.36,0 0.52,0.16 0.16,0.12 0.44,0.52 0.52,0.76 1.72,3.32 1.2,2.52 2.44,5.52 l 3.28,7.96 q 1.56,3.68 1.8,4.32 0.08,-0.76 0.72,-3.6 0.68,-2.84 1.6,-6.4 1.36,-5.16 2.2,-8.12 0.88,-3 1.64,-4.76 0.68,-1.56 1.16,-2.12 0.48,-0.56 1.08,-0.56 0.2,0 0.64,0.64 0.44,0.6 0.44,0.8 z" />
      <path
         id="path897"
         style="font-style:normal;font-variant:normal;font-weight:normal;font-stretch:normal;font-size:40px;font-family:'Ink Free';-inkscape-font-specification:'Ink Free, Normal';font-variant-ligatures:normal;font-variant-caps:normal;font-variant-numeric:normal;font-feature-settings:normal;text-align:start;writing-mode:lr-tb;text-anchor:start"
         d="m 804.25063,132.77274 q 0.08,1.36 0.27999,1.92 0.20001,0.6 0.44001,0.84 0.24,0.28 0.24,0.48 0,0.28 -0.32001,0.44 -0.27999,0.16 -0.63999,0.16 -0.88,0 -1.48001,-0.52 -0.55999,-0.48 -0.55999,-1.44 0,-5.04 0.08,-8.24 l 0.08,-3.56 q 0.12,-3.72 0.12,-5.56 -4,8.92 -7.84001,13.44 -3.84,4.56 -8.6,4.56 -3.52,0 -5.16,-2.16 -1.63999,-2.16 -1.63999,-6.72 0,-6.12 2.75999,-11.96 2.76,-5.88 7.08001,-9.56 4.35999,-3.68 8.79999,-3.68 1.4,0 1.88,0.88 0.52,0.88 0.52,1.84 0,1 -0.19999,1.6 -0.16001,0.56 -0.40001,0.56 -0.19999,0 -0.31999,-0.36 -0.08,-0.36 -0.20001,-1.28 -0.12,-0.88 -0.4,-1.28 -0.27999,-0.44 -1,-0.44 -3.67999,0 -7.6,3.6 -3.88,3.6 -6.48,9.12 -2.56,5.48 -2.56,10.72 0,3.32 1.08001,5.16 1.12,1.88 4,1.88 3.12,0 5.79999,-2.44 2.68,-2.44 4.76,-6 2.12,-3.6 5,-9.52 -2.03999,0.4 -5.72,1.6 -1.55999,0.52 -1.55999,0.52 l -1.48001,0.48 q -1.48,0.52 -2.39999,0.8 -0.92001,0.24 -1.52,0.24 -0.40001,0 -0.64001,-0.36 -0.19999,-0.4 -0.19999,-0.84 0,-0.56 1.63999,-1.12 1.64,-0.6 4.92,-1.32 1.28001,-0.28 3.68001,-0.96 0.39999,-0.12 2.39999,-0.64 2.04,-0.52 2.84001,-0.52 0.08,0 0.43999,0 0.4,0 0.56001,0.32 0.15999,0.28 0.15999,0.92 0,0.36 -0.48,0.64 l -0.04,3.08 q -0.12,3.12 -0.12,6.8 v 5.68 z" />
    </g>
    <flowRoot
       style="fill:black;fill-opacity:1;stroke:none;font-family:sans-serif;font-style:normal;font-weight:normal;font-size:40px;line-height:1.25;letter-spacing:0px;word-spacing:0px"
       id="flowRoot823"
       xml:space="preserve"><flowRegion
         id="flowRegion825"><rect
           y="193.94826"
           x="32.857143"
           height="50"
           width="750"
           id="rect827" /></flowRegion><flowPara
         id="flowPara829"></flowPara></flowRoot>  </g>
</svg>
